<?xml version="1.0" standalone="no"?>
<!DOCTYPE svg PUBLIC "-//W3C//DTD SVG 20010904//EN"
 "http://www.w3.org/TR/2001/REC-SVG-20010904/DTD/svg10.dtd">
<svg version="1.0" xmlns="http://www.w3.org/2000/svg"
 width="840.000000pt" height="1060.000000pt" viewBox="0 0 840.000000 1060.000000"
 preserveAspectRatio="xMidYMid meet">

<g transform="translate(0.000000,1060.000000) scale(0.100000,-0.100000)"
fill="#000000" stroke="none">
<path d="M1810 10194 c-364 -43 -648 -174 -818 -377 -82 -98 -126 -210 -157
-397 -17 -99 -18 -272 -16 -2825 l2 -2720 30 -195 c151 -979 292 -1512 515
-1952 342 -673 912 -1048 1904 -1253 l125 -26 840 -10 c462 -5 973 -13 1135
-19 1085 -39 1482 -15 1705 103 71 38 195 156 252 242 166 247 252 569 253
939 0 374 -84 655 -264 877 -162 199 -429 298 -896 330 -213 14 -531 8 -1055
-22 -497 -29 -1033 -31 -1214 -6 -68 10 -164 27 -213 38 -501 111 -761 474
-843 1176 -30 261 -44 821 -28 1207 l6 168 1876 -2 c1849 -2 1877 -2 1968 18
140 31 212 71 319 177 61 61 107 118 140 175 173 294 251 676 199 976 -19 108
-81 297 -128 391 -59 116 -152 246 -229 319 -115 109 -236 158 -468 190 -102
14 -317 16 -1907 14 l-1793 -1 0 33 c0 18 7 184 17 368 22 464 22 971 0 1158
-36 293 -96 449 -225 584 -42 44 -102 97 -132 118 -127 86 -299 155 -467 185
-84 16 -360 28 -433 19z"/>
</g>
</svg>
